<svg width="25" height="25" viewBox="0 0 25 25" fill="none" xmlns="http://www.w3.org/2000/svg">
<g clip-path="url(#clip0_95_718)">
<path d="M12.5 22.8034C9.76733 22.8034 7.14661 21.7179 5.21434 19.7856C3.28207 17.8533 2.19653 15.2326 2.19653 12.5C2.19653 9.76733 3.28207 7.14661 5.21434 5.21434C7.14661 3.28207 9.76733 2.19653 12.5 2.19653C15.2326 2.19653 17.8533 3.28207 19.7856 5.21434C21.7179 7.14661 22.8034 9.76733 22.8034 12.5C22.8034 15.2326 21.7179 17.8533 19.7856 19.7856C17.8533 21.7179 15.2326 22.8034 12.5 22.8034ZM12.5 24.2753C15.623 24.2753 18.6181 23.0347 20.8264 20.8264C23.0347 18.6181 24.2753 15.623 24.2753 12.5C24.2753 9.37695 23.0347 6.38184 20.8264 4.17353C18.6181 1.96522 15.623 0.724609 12.5 0.724609C9.37695 0.724609 6.38184 1.96522 4.17353 4.17353C1.96522 6.38184 0.724609 9.37695 0.724609 12.5C0.724609 15.623 1.96522 18.6181 4.17353 20.8264C6.38184 23.0347 9.37695 24.2753 12.5 24.2753Z" fill="#1262AF"/>
<path d="M9.87149 7.49995C10.0103 7.42845 10.1662 7.39664 10.322 7.40802C10.4778 7.4194 10.6274 7.47354 10.7544 7.56446L16.6967 11.809C16.8068 11.8875 16.8965 11.9912 16.9584 12.1114C17.0202 12.2316 17.0525 12.3648 17.0525 12.5C17.0525 12.6352 17.0202 12.7685 16.9584 12.8886C16.8965 13.0088 16.8068 13.1125 16.6967 13.191L10.7544 17.4356C10.6274 17.5264 10.4779 17.5805 10.3222 17.5919C10.1665 17.6033 10.0107 17.5715 9.87189 17.5001C9.73308 17.4287 9.61666 17.3204 9.53541 17.1871C9.45417 17.0538 9.41125 16.9007 9.41138 16.7446V8.25548C9.41121 8.09942 9.45407 7.94633 9.53524 7.81304C9.61641 7.67976 9.73276 7.57142 9.87149 7.49995Z" fill="#1262AF"/>
</g>
<defs>
<clipPath id="clip0_95_718">
<rect width="25" height="25" fill="white"/>
</clipPath>
</defs>
</svg>
